# xmcd
#
# Track frame offsets:
#	182
#	13437
#	27402
#	41680
#	61355
#	73370
#	86722
#	108872
#	124667
#	136552
#	150002
#	167337
#	182092
#	206952
#	226885
#	251210
#	269017
#	278815
#	297327
#
# Disc length: 4100 seconds
#
# Revision: 4
# Processed by: cddbd v1.4PL0 Copyright (c) Steve Scherf et al.
# Submitted via: CDmax 2.0
#
DISCID=17100213
DTITLE=Doug Sahm - The Best of Doug Sahm and Friends: Atlantic Sessions
DYEAR=1992
DGENRE=Country
TTITLE0=Texas Tornado
TTITLE1=Nitty Gritty
TTITLE2=(Is Anybody Going To) San Antone
TTITLE3=Poison Love
TTITLE4=Wallflower
TTITLE5=Dealer's Blues
TTITLE6=Aint That Loving You
TTITLE7=San Francisco FM Blues
TTITLE8=I Get Off
TTITLE9=Juan Mendoza
TTITLE10=Box Bar Hobo
TTITLE11=The Image of Me
TTITLE12=Tennessee Blues
TTITLE13=Blue Horizon
TTITLE14=Your Friends
TTITLE15=A Song About Myself
TTITLE16=Hard Way
TTITLE17=Betty Jo
TTITLE18=Chicano
EXTD=LABEL =Rhino Records - Atlantic Recording Corporation\nID =R271032\nUP
EXTD=C =08122-71032-24\nCOPYRIGHT =1992
EXTT0=
EXTT1=
EXTT2=
EXTT3=
EXTT4=
EXTT5=
EXTT6=
EXTT7=
EXTT8=
EXTT9=
EXTT10=(cd bonus track)
EXTT11=(cd bonus track)
EXTT12=
EXTT13=(cd bonus track)
EXTT14=
EXTT15=(cd bonus track)
EXTT16=
EXTT17=(cd bonus track)
EXTT18=
PLAYORDER=
